<svg width="32" height="32" viewBox="0 0 32 32" fill="none" xmlns="http://www.w3.org/2000/svg">
  <circle cx="16" cy="16" r="16" fill="#1DB954"/>
  <path d="M23 12.8C19.8 11.4 16 11.1 12.3 11.9C11.9 12 11.7 12.4 11.8 12.8C11.9 13.2 12.3 13.4 12.7 13.3C16 12.6 19.4 12.9 22.2 14.1C22.6 14.3 23 14.1 23.2 13.7C23.4 13.3 23.2 12.9 22.8 12.7L23 12.8ZM22.8 16.1C22.6 15.7 22.1 15.6 21.7 15.8C19 17.1 15.3 17.3 12.1 16.6C11.7 16.5 11.3 16.7 11.2 17.1C11.1 17.5 11.3 17.9 11.7 18C15.3 18.8 19.4 18.6 22.4 17.1C22.8 16.9 22.9 16.4 22.7 16V16.1ZM21.3 19.2C21.1 18.9 20.7 18.8 20.4 19C18.5 20 15.2 20.2 12.3 19.4C12 19.3 11.6 19.5 11.5 19.8C11.4 20.1 11.6 20.5 11.9 20.6C15.1 21.5 18.7 21.2 21 20C21.3 19.8 21.4 19.4 21.2 19.1L21.3 19.2Z" fill="black"/>
</svg>